<?xml version="1.0" encoding="UTF-8" standalone="no"?>
<!-- Created with Inkscape (http://www.inkscape.org/) -->

<svg
   width="90.747002mm"
   height="46.917351mm"
   viewBox="0 0 90.747002 46.917351"
   version="1.1"
   id="svg21970"
   inkscape:version="1.1.1 (3bf5ae0d25, 2021-09-20)"
   sodipodi:docname="ticketraw.svg"
   xmlns:inkscape="http://www.inkscape.org/namespaces/inkscape"
   xmlns:sodipodi="http://sodipodi.sourceforge.net/DTD/sodipodi-0.dtd"
   xmlns="http://www.w3.org/2000/svg"
   xmlns:svg="http://www.w3.org/2000/svg">
  <sodipodi:namedview
     id="namedview21972"
     pagecolor="#505050"
     bordercolor="#eeeeee"
     borderopacity="1"
     inkscape:pageshadow="0"
     inkscape:pageopacity="0"
     inkscape:pagecheckerboard="0"
     inkscape:document-units="mm"
     showgrid="false"
     inkscape:snap-global="false"
     fit-margin-top="0"
     fit-margin-left="0"
     fit-margin-right="0"
     fit-margin-bottom="0"
     inkscape:zoom="1.4289282"
     inkscape:cx="223.59416"
     inkscape:cy="148.01304"
     inkscape:window-width="1920"
     inkscape:window-height="991"
     inkscape:window-x="-9"
     inkscape:window-y="-9"
     inkscape:window-maximized="1"
     inkscape:current-layer="layer1" />
  <defs
     id="defs21967" />
  <g
     inkscape:label="Capa 1"
     inkscape:groupmode="layer"
     id="layer1"
     transform="translate(-70.696582,-74.693736)">
    <path
       style="fill:#000000;stroke-width:1"
       d="m 78.547118,121.48212 c 0,-0.13816 -0.180234,-0.54473 -0.18343,-0.99342 -0.02005,-2.81487 -3.220977,-6.00064 -6.674918,-6.64322 l -0.992188,-0.18459 V 98.109361 82.557836 L 71.68877,82.37519 c 3.412435,-0.628175 6.195454,-3.318421 6.63875,-6.417442 l 0.180809,-1.264012 H 126.254 153.63183 l 0.18081,1.264012 c 0.4433,3.099021 3.22632,5.789267 6.63875,6.417442 l 0.99219,0.182646 v 15.551525 15.551529 l -0.99219,0.18264 c -3.41244,0.62818 -6.19547,3.31844 -6.63874,6.41744 l -0.1808,1.26402 -27.26964,0.0674 c -14.99831,0.0371 -47.815092,0.0279 -47.815092,-0.11024 z m 74.634032,-2.00765 c 0.64679,-2.72693 3.13331,-5.35156 5.73629,-6.05491 0.58901,-0.15916 1.21976,-0.33158 1.40166,-0.38315 0.25954,-0.0736 0.33073,-3.28683 0.33073,-14.927049 0,-11.640219 -0.0712,-14.853459 -0.33073,-14.927045 -0.1819,-0.05157 -0.81265,-0.223991 -1.40166,-0.383148 -2.60298,-0.703356 -5.0895,-3.327983 -5.73629,-6.054911 l -0.32946,-1.389062 H 126.254 79.288477 l -0.329467,1.389062 c -0.646791,2.726928 -3.133303,5.351555 -5.736288,6.054911 -0.589012,0.159157 -1.219759,0.331574 -1.401661,0.383148 -0.259535,0.07359 -0.330729,3.286826 -0.330729,14.927045 0,11.640219 0.07119,14.853459 0.330729,14.927049 0.181902,0.0516 0.812649,0.22399 1.401661,0.38315 2.641903,0.71387 5.399687,3.23201 5.73785,6.06357 l 0.327905,1.3804 H 126.254 152.85169 Z"
       id="path22061"
       sodipodi:nodetypes="ssscccsscccsscccssccssssssssscccssssssscccs" />
    <rect
       style="fill:none;fill-opacity:0.328923;stroke:#000000;stroke-width:0.665;stroke-linecap:round;stroke-linejoin:round;stroke-miterlimit:4;stroke-dasharray:0.665, 1.33;stroke-dashoffset:0;paint-order:stroke fill markers"
       id="rect22185"
       width="72.717278"
       height="34.069824"
       x="79.711441"
       y="81.1175"
       ry="4.3904409" />
  </g>
</svg>
