<?xml version="1.0" encoding="UTF-8" standalone="no"?>
<svg
   width="90.747597mm"
   height="46.917187mm"
   version="1.1"
   viewBox="0 0 90.747595 46.917187"
   id="svg830"
   sodipodi:docname="ticket.svg"
   inkscape:version="1.1.1 (3bf5ae0d25, 2021-09-20)"
   xmlns:inkscape="http://www.inkscape.org/namespaces/inkscape"
   xmlns:sodipodi="http://sodipodi.sourceforge.net/DTD/sodipodi-0.dtd"
   xmlns="http://www.w3.org/2000/svg"
   xmlns:svg="http://www.w3.org/2000/svg">
  <defs
     id="defs834" />
  <sodipodi:namedview
     id="namedview832"
     pagecolor="#505050"
     bordercolor="#eeeeee"
     borderopacity="1"
     inkscape:pageshadow="0"
     inkscape:pageopacity="0"
     inkscape:pagecheckerboard="0"
     inkscape:document-units="mm"
     showgrid="false"
     fit-margin-top="0"
     fit-margin-left="0"
     fit-margin-right="0"
     fit-margin-bottom="0"
     inkscape:zoom="1.5044574"
     inkscape:cx="81.424704"
     inkscape:cy="55.501737"
     inkscape:window-width="1920"
     inkscape:window-height="991"
     inkscape:window-x="-9"
     inkscape:window-y="-9"
     inkscape:window-maximized="1"
     inkscape:current-layer="g5443" />
  <g
     id="g5443">
    <g
       transform="translate(-70.69648,-74.69174)"
       id="g828">
      <path
         d="m 78.547,121.48 c 0,-0.13816 -0.18023,-0.54473 -0.18343,-0.99342 -0.02005,-2.8149 -3.221,-6.0006 -6.6749,-6.6432 l -0.99219,-0.18459 v -31.103 l 0.99219,-0.18265 c 3.4124,-0.62818 6.1955,-3.3184 6.6388,-6.4174 l 0.18081,-1.264 h 75.124 l 0.18081,1.264 c 0.4433,3.099 3.2263,5.7893 6.6388,6.4174 l 0.99219,0.18265 v 31.103 l -0.99219,0.18264 c -3.4124,0.62818 -6.1955,3.3184 -6.6387,6.4174 l -0.1808,1.264 -27.27,0.0674 c -14.998,0.0371 -47.815,0.0279 -47.815,-0.11024 z m 74.634,-2.0076 c 0.64679,-2.7269 3.1333,-5.3516 5.7363,-6.0549 0.58901,-0.15916 1.2198,-0.33158 1.4017,-0.38315 0.25954,-0.0736 0.33073,-3.2868 0.33073,-14.927 0,-11.6402 -0.0712,-14.853 -0.33073,-14.927 -0.1819,-0.05157 -0.81265,-0.22399 -1.4017,-0.38315 -2.603,-0.70336 -5.0895,-3.328 -5.7363,-6.0549 l -0.32946,-1.3891 h -73.563 l -0.32947,1.3891 c -0.64679,2.7269 -3.1333,5.3516 -5.7363,6.0549 -0.58901,0.15916 -1.2198,0.33157 -1.4017,0.38315 -0.25954,0.07359 -0.33073,3.2868 -0.33073,14.927 0,11.6402 0.07119,14.853 0.33073,14.927 0.1819,0.0516 0.81265,0.22399 1.4017,0.38315 2.6419,0.71387 5.3997,3.232 5.7378,6.0636 l 0.3279,1.3804 h 73.563 z"
         id="path824" />
      <rect
         x="79.710999"
         y="81.117996"
         width="72.717003"
         height="34.07"
         ry="4.3903999"
         fill="none"
         stroke="#000000"
         stroke-dasharray="0.665, 1.33"
         stroke-linecap="round"
         stroke-linejoin="round"
         stroke-width="0.665"
         style="paint-order:stroke fill markers"
         id="rect826" />
    </g>
    <text
       xml:space="preserve"
       style="font-size:10.5833px;line-height:1.25;font-family:'Times New Roman';-inkscape-font-specification:'Times New Roman, ';stroke-width:0.264583"
       x="46.15696"
       y="21.28573"
       id="text1204"><tspan
         sodipodi:role="line"
         id="tspan1202"
         style="font-style:normal;font-variant:normal;font-weight:normal;font-stretch:normal;font-family:'Bebas Neue';-inkscape-font-specification:'Bebas Neue';text-align:center;text-anchor:middle;stroke-width:0.264583"
         x="46.15696"
         y="21.28573">Válido para </tspan><tspan
         sodipodi:role="line"
         style="font-style:normal;font-variant:normal;font-weight:normal;font-stretch:normal;font-family:'Bebas Neue';-inkscape-font-specification:'Bebas Neue';text-align:center;text-anchor:middle;stroke-width:0.264583"
         x="46.15696"
         y="34.648422"
         id="tspan1206">una cena</tspan></text>
  </g>
</svg>
